<?xml version="1.0" encoding="UTF-8" standalone="no"?><!DOCTYPE svg PUBLIC "-//W3C//DTD SVG 1.1//EN" "http://www.w3.org/Graphics/SVG/1.1/DTD/svg11.dtd"><svg width="100%" height="100%" viewBox="0 0 900 600" version="1.1" xmlns="http://www.w3.org/2000/svg" xmlns:xlink="http://www.w3.org/1999/xlink" xml:space="preserve" xmlns:serif="http://www.serif.com/" style="fill-rule:evenodd;clip-rule:evenodd;stroke-linejoin:round;stroke-miterlimit:2;"><g id="Background"><rect id="Bottom-stripe" serif:id="Bottom stripe" x="0" y="400" width="900" height="200.031" style="fill:#006;"/><rect id="Middle-stripe" serif:id="Middle stripe" x="0" y="200" width="900" height="200.031" style="fill:#fff;"/><rect id="Top-stripe" serif:id="Top stripe" x="0" y="0" width="900" height="200.031" style="fill:#006;"/></g><g id="Big-C"><path d="M483.131,380.617c-31.024,70.289 -101.357,119.398 -183.069,119.398c-110.383,0 -200,-89.617 -200,-200c0,-110.383 89.617,-200 200,-200c81.712,0 152.045,49.11 183.069,119.399l-102.581,42.705c-14.24,-30.164 -44.944,-51.058 -80.488,-51.058c-49.096,0 -88.954,39.859 -88.954,88.954c0,49.095 39.858,88.954 88.954,88.954c35.544,0 66.248,-20.893 80.488,-51.058l102.581,42.706Z" style="fill:#c00;"/><circle cx="300.062" cy="300.015" r="88.954" style="fill:#fc0;"/></g></svg>